<svg xmlns="http://www.w3.org/2000/svg" viewBox="0 0 64 64">
  <rect width="64" height="64" rx="14" fill="#102016"/>
  <circle cx="32" cy="32" r="27" fill="#f4c66a"/>
  <path d="M12 30c2-12 10-20 20-20s18 8 20 20c-7-8-33-8-40 0Z" fill="#f3d273"/>
  <path d="M14 29c5-8 13-13 18-13s13 5 18 13c-6-3-30-3-36 0Z" fill="#ffd980"/>
  <path d="M18 28c2-9 8-15 14-15s12 6 14 15c-7-4-21-4-28 0Z" fill="#f2b94e"/>
  <circle cx="23" cy="33" r="4" fill="#1b1b12"/>
  <circle cx="41" cy="33" r="4" fill="#1b1b12"/>
  <path d="M27 45c3 3 7 3 10 0" fill="none" stroke="#1b1b12" stroke-width="4" stroke-linecap="round"/>
  <path d="M9 36c3-2 6-2 9 0M46 36c3-2 6-2 9 0" fill="none" stroke="#1b1b12" stroke-width="4" stroke-linecap="round"/>
  <path d="M6 25c2-9 10-17 19-20 5-2 9-2 14 0 9 3 17 11 19 20-6-6-15-10-26-10S12 19 6 25Z" fill="#f7d76a"/>
  <path d="M18 18c6-7 22-7 28 0" fill="none" stroke="#fff1a6" stroke-width="4" stroke-linecap="round" opacity=".7"/>
  <rect x="4" y="4" width="56" height="56" rx="12" fill="none" stroke="#7dff9d" stroke-width="2" opacity=".55"/>
</svg>
