<svg xmlns="http://www.w3.org/2000/svg" width="640" height="360" viewBox="0 0 640 360">
  <defs>
    <linearGradient id="g" x1="0" x2="1" y1="0" y2="1"><stop offset="0" stop-color="#1b2c1e"/><stop offset="1" stop-color="#020402"/></linearGradient>
    <radialGradient id="r" cx="70%" cy="35%" r="55%"><stop offset="0" stop-color="#92c572" stop-opacity=".32"/><stop offset="1" stop-color="#92c572" stop-opacity="0"/></radialGradient>
    <pattern id="scan" width="8" height="8" patternUnits="userSpaceOnUse"><path d="M0 0H8" stroke="#ffffff" stroke-opacity=".05"/></pattern>
  </defs>
  <rect width="640" height="360" fill="url(#g)"/>
  <rect width="640" height="360" fill="url(#r)"/>
  <path d="M0 292 C110 246 168 304 286 250 C390 202 472 226 640 176 L640 360 L0 360Z" fill="#030603" opacity=".82"/>
  <path d="M88 260 L132 122 L178 260 M119 168 H151" fill="none" stroke="#92c572" stroke-width="8" opacity=".55"/>
  <circle cx="438" cy="148" r="70" fill="none" stroke="#92c572" stroke-width="9" opacity=".35"/>
  <path d="M390 190 L438 78 L486 190 Z" fill="none" stroke="#92c572" stroke-width="7" opacity=".42"/>
  <text x="34" y="62" fill="#92c572" font-family="Bahnschrift,Arial,sans-serif" font-size="42" font-weight="800" letter-spacing="2">QUARANTINE</text>
  <text x="36" y="106" fill="#dcebcf" font-family="Bahnschrift,Arial,sans-serif" font-size="24" font-weight="700" letter-spacing="3">STEALTH</text>
  <rect x="22" y="22" width="596" height="316" rx="12" fill="none" stroke="#92c572" stroke-opacity=".42" stroke-width="2"/>
  <rect width="640" height="360" fill="url(#scan)"/>
</svg>