<svg xmlns="http://www.w3.org/2000/svg" viewBox="0 0 512 512" role="img" aria-label="RPG Platform Vault Boy icon">
  <defs>
    <linearGradient id="bg" x1="72" x2="440" y1="48" y2="464" gradientUnits="userSpaceOnUse">
      <stop offset="0" stop-color="#55b4ee"/>
      <stop offset="1" stop-color="#3478d3"/>
    </linearGradient>
    <linearGradient id="hair" x1="134" x2="365" y1="70" y2="170" gradientUnits="userSpaceOnUse">
      <stop offset="0" stop-color="#fff47a"/>
      <stop offset="1" stop-color="#e8cf4b"/>
    </linearGradient>
  </defs>
  <rect width="512" height="512" rx="38" fill="url(#bg)"/>
  <g stroke="#050505" stroke-linecap="round" stroke-linejoin="round">
    <path fill="#f6e5c6" stroke-width="12" d="M153 195c-18 16-28 45-23 76 4 26 16 50 34 68 6 58 45 96 98 104 66 10 123-31 143-96 22-12 35-34 34-58-1-24-15-41-35-45-7-66-54-124-123-137-51-9-98 25-128 88z"/>
    <path fill="url(#hair)" stroke-width="13" d="M79 192c14-56 53-112 103-113 11 0 15 15 7 31 45-55 111-80 155-47 18 13 20 30 15 45 30-9 61 8 71 36 36 2 52 36 40 70-13 37-57 45-94 28-35-15-65-43-104-48-44-6-81 26-109 54-23-3-44-18-52-39-22 6-38 1-32-17z"/>
    <path fill="none" stroke-width="10" d="M174 244c12-18 31-28 49-24"/>
    <path fill="none" stroke-width="10" d="M306 219c20 0 37 11 47 27"/>
    <path fill="#050505" stroke-width="5" d="M192 274c0 18 7 32 17 32s18-14 18-32-8-32-18-32-17 14-17 32z"/>
    <path fill="#050505" stroke-width="5" d="M319 274c0 18 7 32 17 32s18-14 18-32-8-32-18-32-17 14-17 32z"/>
    <path fill="none" stroke-width="10" d="M270 253c-12 30-24 55-40 78 15 9 30 13 45 13"/>
    <path fill="#fff" stroke-width="11" d="M171 354c31 48 104 66 172 21-27 48-114 67-172-21z"/>
    <path fill="none" stroke-width="8" d="M188 357c41 22 88 27 140 7"/>
    <path fill="none" stroke-width="8" d="M403 249c-12 20-17 49-9 76"/>
    <path fill="none" stroke-width="7" d="M424 255l-31 9M431 278l-34 3M426 304l-29-5"/>
    <path fill="none" stroke-width="7" d="M176 414c28 17 64 24 105 22"/>
  </g>
</svg>
